<svg xmlns="http://www.w3.org/2000/svg" xmlns:xlink="http://www.w3.org/1999/xlink" version="1.1" width="256" height="256" viewBox="0 0 256 256" xml:space="preserve">
<desc>Created with Fabric.js 1.7.22</desc>
<defs>
</defs>
<g transform="translate(128 128) scale(0.72 0.72)" style="">
	<g style="stroke: none; stroke-width: 0; stroke-dasharray: none; stroke-linecap: butt; stroke-linejoin: miter; stroke-miterlimit: 10; fill: none; fill-rule: nonzero; opacity: 1;" transform="translate(-175.05 -175.05000000000004) scale(3.89 3.89)" >
	<path d="M 45 3.499 c 13.509 0 24.5 10.991 24.5 24.5 s -10.991 24.5 -24.5 24.5 s -24.5 -10.991 -24.5 -24.5 S 31.491 3.499 45 3.499" style="stroke: none; stroke-width: 1; stroke-dasharray: none; stroke-linecap: butt; stroke-linejoin: miter; stroke-miterlimit: 10; fill: rgb(255,255,255); fill-rule: nonzero; opacity: 1;" transform=" matrix(1 0 0 1 0 0) " stroke-linecap="round" />
	<path d="M 5.557 87.444 c -1.93 0 -3.5 -1.57 -3.5 -3.5 c 0 -1.93 1.57 -3.5 3.5 -3.5 s 3.5 1.57 3.5 3.5 C 9.057 85.874 7.487 87.444 5.557 87.444 z" style="stroke: none; stroke-width: 1; stroke-dasharray: none; stroke-linecap: butt; stroke-linejoin: miter; stroke-miterlimit: 10; fill: rgb(255,255,255); fill-rule: nonzero; opacity: 1;" transform=" matrix(1 0 0 1 0 0) " stroke-linecap="round" />
	<path d="M 30.723 69.669 c -1.93 0 -3.5 -1.57 -3.5 -3.5 c 0 -1.93 1.57 -3.5 3.5 -3.5 c 1.93 0 3.5 1.57 3.5 3.5 C 34.224 68.099 32.653 69.669 30.723 69.669 z" style="stroke: none; stroke-width: 1; stroke-dasharray: none; stroke-linecap: butt; stroke-linejoin: miter; stroke-miterlimit: 10; fill: rgb(255,255,255); fill-rule: nonzero; opacity: 1;" transform=" matrix(1 0 0 1 0 0) " stroke-linecap="round" />
	<path d="M 47.336 81.891 c -1.93 0 -3.5 -1.57 -3.5 -3.5 c 0 -1.93 1.57 -3.5 3.5 -3.5 c 1.93 0 3.5 1.57 3.5 3.5 C 50.836 80.321 49.266 81.891 47.336 81.891 z" style="stroke: none; stroke-width: 1; stroke-dasharray: none; stroke-linecap: butt; stroke-linejoin: miter; stroke-miterlimit: 10; fill: rgb(255,255,255); fill-rule: nonzero; opacity: 1;" transform=" matrix(1 0 0 1 0 0) " stroke-linecap="round" />
	<path d="M 84.443 56.788 c -1.93 0 -3.5 -1.57 -3.5 -3.5 c 0 -1.93 1.57 -3.5 3.5 -3.5 c 1.93 0 3.5 1.57 3.5 3.5 C 87.943 55.218 86.373 56.788 84.443 56.788 z" style="stroke: none; stroke-width: 1; stroke-dasharray: none; stroke-linecap: butt; stroke-linejoin: miter; stroke-miterlimit: 10; fill: rgb(255,255,255); fill-rule: nonzero; opacity: 1;" transform=" matrix(1 0 0 1 0 0) " stroke-linecap="round" />
	<path d="M 54.265 32.937 c -0.828 0 -1.5 0.671 -1.5 1.5 c 0 1.593 -1.012 2.889 -2.256 2.889 H 39.491 c -1.244 0 -2.256 -1.296 -2.256 -2.889 V 21.562 c 0 -1.593 1.012 -2.889 2.256 -2.889 h 11.019 c 1.244 0 2.256 1.296 2.256 2.889 c 0 0.829 0.672 1.5 1.5 1.5 s 1.5 -0.671 1.5 -1.5 c 0 -3.247 -2.357 -5.889 -5.256 -5.889 H 46.5 v -2.952 c 0 -0.829 -0.671 -1.5 -1.5 -1.5 s -1.5 0.671 -1.5 1.5 v 2.952 h -4.009 c -2.898 0 -5.256 2.642 -5.256 5.889 v 12.875 c 0 3.247 2.358 5.889 5.256 5.889 H 43.5 v 3.952 c 0 0.829 0.671 1.5 1.5 1.5 s 1.5 -0.671 1.5 -1.5 v -3.952 h 4.01 c 2.898 0 5.256 -2.642 5.256 -5.889 C 55.765 33.608 55.093 32.937 54.265 32.937 z" style="stroke: none; stroke-width: 1; stroke-dasharray: none; stroke-linecap: butt; stroke-linejoin: miter; stroke-miterlimit: 10; fill: rgb(215,228,238); fill-rule: nonzero; opacity: 1;" transform=" matrix(1 0 0 1 0 0) " stroke-linecap="round" />
	<path d="M 45 3.499 c 13.509 0 24.5 10.991 24.5 24.5 s -10.991 24.5 -24.5 24.5 s -24.5 -10.991 -24.5 -24.5 S 31.491 3.499 45 3.499 M 45 0.499 c -15.188 0 -27.5 12.312 -27.5 27.5 s 12.312 27.5 27.5 27.5 s 27.5 -12.312 27.5 -27.5 S 60.188 0.499 45 0.499 L 45 0.499 z" style="stroke: none; stroke-width: 1; stroke-dasharray: none; stroke-linecap: butt; stroke-linejoin: miter; stroke-miterlimit: 10; fill: rgb(215,228,238); fill-rule: nonzero; opacity: 1;" transform=" matrix(1 0 0 1 0 0) " stroke-linecap="round" />
	<path d="M 84.443 47.731 c -3.069 0 -5.557 2.488 -5.557 5.557 c 0 0.796 0.17 1.552 0.472 2.237 L 51.27 74.467 c -1.006 -1.008 -2.397 -1.632 -3.934 -1.632 c -1.427 0 -2.724 0.542 -3.708 1.427 l -7.975 -5.534 c 0.398 -0.766 0.627 -1.635 0.627 -2.558 c 0 -3.069 -2.488 -5.557 -5.557 -5.557 c -3.069 0 -5.557 2.488 -5.557 5.557 c 0 0.677 0.127 1.322 0.349 1.922 L 9.301 79.846 c -0.988 -0.903 -2.299 -1.459 -3.744 -1.459 C 2.488 78.387 0 80.875 0 83.944 c 0 3.069 2.488 5.557 5.557 5.557 s 5.557 -2.488 5.557 -5.557 c 0 -0.537 -0.08 -1.054 -0.222 -1.545 l 16.383 -11.877 c 0.948 0.752 2.145 1.205 3.449 1.205 c 1.043 0 2.015 -0.292 2.848 -0.792 l 8.443 5.859 c -0.152 0.506 -0.236 1.042 -0.236 1.598 c 0 3.069 2.488 5.557 5.557 5.557 c 3.069 0 5.557 -2.488 5.557 -5.557 c 0 -0.447 -0.058 -0.879 -0.158 -1.295 L 81.275 57.85 c 0.899 0.626 1.99 0.995 3.168 0.995 c 3.069 0 5.557 -2.488 5.557 -5.557 C 90 50.219 87.512 47.731 84.443 47.731 z M 5.557 86.501 C 4.147 86.501 3 85.354 3 83.944 c 0 -1.41 1.147 -2.557 2.557 -2.557 s 2.557 1.147 2.557 2.557 C 8.114 85.354 6.967 86.501 5.557 86.501 z M 30.724 68.726 c -1.41 0 -2.557 -1.147 -2.557 -2.557 c 0 -1.41 1.147 -2.557 2.557 -2.557 c 1.41 0 2.557 1.147 2.557 2.557 C 33.281 67.579 32.133 68.726 30.724 68.726 z M 47.336 80.948 c -1.41 0 -2.557 -1.147 -2.557 -2.557 c 0 -1.41 1.147 -2.557 2.557 -2.557 c 1.41 0 2.557 1.147 2.557 2.557 C 49.893 79.801 48.746 80.948 47.336 80.948 z M 84.443 55.845 c -1.41 0 -2.557 -1.147 -2.557 -2.557 c 0 -1.41 1.147 -2.557 2.557 -2.557 c 1.41 0 2.557 1.147 2.557 2.557 C 87 54.698 85.853 55.845 84.443 55.845 z" style="stroke: none; stroke-width: 1; stroke-dasharray: none; stroke-linecap: butt; stroke-linejoin: miter; stroke-miterlimit: 10; fill: rgb(215,228,238); fill-rule: nonzero; opacity: 1;" transform=" matrix(1 0 0 1 0 0) " stroke-linecap="round" />
</g>
</g>
</svg>